<svg width="200" height="200" viewBox="0 0 200 200" fill="none" xmlns="http://www.w3.org/2000/svg">
<g clip-path="url(#clip0_686_10)">
<path d="M150.313 90.4128L158.509 89.5026" stroke="black" stroke-width="3"/>
<path d="M60.3135 58.1277L99.3135 103.628" stroke="black" stroke-width="8"/>
<path d="M130.313 60.1277L80.8135 105.128" stroke="black" stroke-width="8"/>
<path d="M143.865 133.963C111.399 169.029 70.4686 175.787 45.7711 164.533C30.0528 157.37 23.0883 142.641 23.7107 124.547C24.3381 106.31 32.7644 85.1484 47.4108 66.9489C61.9933 48.8288 81.5054 35.9665 100.443 30.239C119.472 24.4839 137.153 26.1059 148.992 35.6334C172.978 54.9367 173.29 97.3071 143.865 133.963Z" stroke="black" stroke-width="9"/>
<path d="M34.8135 158.128L47.8135 171.628L73.8135 181.128H90.8135L119.313 171.628L148.313 150.628L169.5 124L178.5 96L175.813 74.6277L172.313 60.6277L151.313 37.6277" stroke="black" stroke-width="8"/>
<path d="M107.313 41.6277L109.313 33.6277" stroke="black" stroke-width="3"/>
<path d="M78.3135 161.628L80.3135 153.628" stroke="black" stroke-width="3"/>
<path d="M34.2915 103.549L42.4873 102.639" stroke="black" stroke-width="3"/>
</g>
<defs>
<clipPath id="clip0_686_10">
<rect width="165" height="200" fill="white" transform="translate(18)"/>
</clipPath>
</defs>
</svg>
