<svg width="165" height="200" viewBox="0 0 165 200" fill="none" xmlns="http://www.w3.org/2000/svg">
<g clip-path="url(#clip0_119_440)">
<path d="M132.313 90.4128L140.509 89.5026" stroke="black" stroke-width="3"/>
<path d="M42.3135 58.1277L81.3135 103.628" stroke="black" stroke-width="8"/>
<path d="M112.313 60.1277L62.8135 105.128" stroke="black" stroke-width="8"/>
<path d="M125.865 133.963C93.3989 169.029 52.4686 175.787 27.7711 164.533C12.0528 157.37 5.08831 142.641 5.71072 124.547C6.33807 106.31 14.7644 85.1484 29.4108 66.9489C43.9933 48.8288 63.5054 35.9665 82.4432 30.239C101.472 24.4839 119.153 26.1059 130.992 35.6334C154.978 54.9367 155.29 97.3071 125.865 133.963Z" stroke="black" stroke-width="9"/>
<path d="M16.8135 158.128L29.8135 171.628L55.8135 181.128H72.8135L101.313 171.628L130.313 150.628L151.5 124L160.5 96L157.813 74.6277L154.313 60.6277L133.313 37.6277" stroke="black" stroke-width="8"/>
<path d="M89.3135 41.6277L91.3135 33.6277" stroke="black" stroke-width="3"/>
<path d="M60.3135 161.628L62.3135 153.628" stroke="black" stroke-width="3"/>
<path d="M16.2915 103.549L24.4873 102.639" stroke="black" stroke-width="3"/>
</g>
<defs>
<clipPath id="clip0_119_440">
<rect width="165" height="200" fill="white"/>
</clipPath>
</defs>
</svg>
