<svg width="29" height="23" viewBox="0 0 29 23" fill="none" xmlns="http://www.w3.org/2000/svg">
<path d="M25.375 0.625H3.625C1.62275 0.625 0 2.24775 0 4.25V18.75C0 20.7522 1.62275 22.375 3.625 22.375H25.375C27.3772 22.375 29 20.7522 29 18.75V4.25C29 2.24775 27.3744 0.625 25.375 0.625ZM3.625 3.34375H25.375C25.8747 3.34375 26.2812 3.75032 26.2812 4.25V5.50516L16.8336 13.3272C15.5201 14.4193 13.4725 14.4187 12.1624 13.3281L2.71875 5.50742V4.25C2.71875 3.75156 3.12543 3.34375 3.625 3.34375ZM25.375 19.6562H3.625C3.12532 19.6562 2.71875 19.2497 2.71875 18.75V9.04746L10.4275 15.4705C11.5717 16.4164 13.016 16.9375 14.5 16.9375C15.984 16.9375 17.4312 16.4171 18.5764 15.466L26.2812 9.04746V18.75C26.2812 19.2484 25.8734 19.6562 25.375 19.6562Z" fill="black"/>
</svg>
