<svg width="24" height="24" viewBox="0 0 24 24" fill="none" xmlns="http://www.w3.org/2000/svg">
<path d="M7.94986 18.5287C7.94986 18.6238 7.83964 18.7 7.70068 18.7C7.54254 18.7143 7.43233 18.6381 7.43233 18.5287C7.43233 18.4335 7.54254 18.3574 7.68151 18.3574C7.82527 18.3431 7.94986 18.4192 7.94986 18.5287ZM6.45956 18.3146C6.42602 18.4097 6.52186 18.5192 6.66562 18.5477C6.79021 18.5953 6.93396 18.5477 6.96272 18.4526C6.99147 18.3574 6.90042 18.2479 6.75666 18.2051C6.63207 18.1718 6.4931 18.2194 6.45956 18.3146ZM8.57761 18.2337C8.43864 18.267 8.3428 18.3574 8.35718 18.4668C8.37155 18.562 8.49614 18.6238 8.6399 18.5905C8.77887 18.5572 8.87471 18.4668 8.86033 18.3717C8.84596 18.2813 8.71657 18.2194 8.57761 18.2337ZM11.7307 0C5.08427 0 0 5.01045 0 11.6102C0 16.8871 3.34479 21.4027 8.12237 22.9919C8.73574 23.1014 8.95138 22.7255 8.95138 22.4162C8.95138 22.1212 8.937 20.4938 8.937 19.4946C8.937 19.4946 5.58263 20.2084 4.87821 18.0766C4.87821 18.0766 4.33193 16.692 3.54605 16.3351C3.54605 16.3351 2.44869 15.5881 3.62272 15.6024C3.62272 15.6024 4.81592 15.6975 5.47242 16.83C6.52186 18.6667 8.28051 18.1385 8.96576 17.8245C9.07597 17.0631 9.38745 16.535 9.73247 16.2209C7.05376 15.9259 4.3511 15.5405 4.3511 10.963C4.3511 9.65452 4.71529 8.99788 5.482 8.16042C5.35741 7.85114 4.95009 6.57592 5.60659 4.92956C6.60811 4.62028 8.91304 6.21429 8.91304 6.21429C9.87144 5.94783 10.9017 5.80984 11.9224 5.80984C12.9431 5.80984 13.9734 5.94783 14.9317 6.21429C14.9317 6.21429 17.2367 4.61552 18.2382 4.92956C18.8947 6.58068 18.4874 7.85114 18.3628 8.16042C19.1295 9.00264 19.5991 9.65928 19.5991 10.963C19.5991 15.5548 16.7766 15.9212 14.0979 16.2209C14.5388 16.5968 14.9126 17.3106 14.9126 18.4288C14.9126 20.0323 14.8982 22.0165 14.8982 22.4067C14.8982 22.716 15.1186 23.0919 15.7272 22.9824C20.5192 21.4027 23.7681 16.8871 23.7681 11.6102C23.7681 5.01045 18.3772 0 11.7307 0ZM4.65778 16.4113C4.59549 16.4588 4.60986 16.5683 4.69133 16.6587C4.768 16.7348 4.87821 16.7681 4.94051 16.7063C5.00281 16.6587 4.98843 16.5492 4.90697 16.4588C4.83029 16.3827 4.72008 16.3494 4.65778 16.4113ZM4.14025 16.0258C4.10671 16.0877 4.15463 16.1638 4.25047 16.2114C4.32714 16.259 4.42298 16.2447 4.45652 16.1781C4.49007 16.1162 4.44215 16.0401 4.34631 15.9925C4.25047 15.964 4.1738 15.9783 4.14025 16.0258ZM5.69285 17.7198C5.61618 17.7816 5.64493 17.9244 5.75514 18.0148C5.86536 18.1242 6.00432 18.1385 6.06662 18.0624C6.12892 18.0005 6.10016 17.8578 6.00432 17.7674C5.8989 17.6579 5.75514 17.6436 5.69285 17.7198ZM5.14656 17.0203C5.06989 17.0679 5.06989 17.1916 5.14656 17.3011C5.22324 17.4105 5.35262 17.4581 5.41491 17.4105C5.49159 17.3486 5.49159 17.2249 5.41491 17.1155C5.34783 17.006 5.22324 16.9585 5.14656 17.0203Z" fill="black"/>
</svg>
