<svg width="22" height="23" viewBox="0 0 22 23" fill="none" xmlns="http://www.w3.org/2000/svg">
<path d="M20.4151 0.559784H1.56549C0.70177 0.559784 0 1.26656 0 2.13419V20.8223C0 21.69 0.70177 22.3967 1.56549 22.3967H20.4151C21.2788 22.3967 21.9855 21.69 21.9855 20.8223V2.13419C21.9855 1.26656 21.2788 0.559784 20.4151 0.559784ZM6.64473 19.2772H3.38616V8.85588H6.64963V19.2772H6.64473ZM5.01544 7.43258C3.97015 7.43258 3.12606 6.58932 3.12606 5.55596C3.12606 4.52261 3.97015 3.67935 5.01544 3.67935C6.05583 3.67935 6.90482 4.52261 6.90482 5.55596C6.90482 6.59419 6.06074 7.43258 5.01544 7.43258V7.43258ZM18.8594 19.2772H15.6009V14.2079C15.6009 12.9991 15.5763 11.4441 13.9078 11.4441C12.2098 11.4441 11.9497 12.7602 11.9497 14.1201V19.2772H8.69115V8.85588H11.8172V10.2792H11.8614C12.2981 9.46029 13.3631 8.59754 14.9482 8.59754C18.246 8.59754 18.8594 10.7569 18.8594 13.5645V19.2772V19.2772Z" fill="black"/>
</svg>
