<svg width="222" height="200" viewBox="0 0 222 200" fill="none" xmlns="http://www.w3.org/2000/svg">
<g clip-path="url(#clip0_119_443)">
<path d="M3 167L20 132.5L13.5 120C13.5 120 10 110 10.5 94C11 78 20 67.5 20 67.5C20 67.5 25 59 40.5 51C56 43 170.5 30.5 177 31.5C183.5 32.5 195.5 35.5 208 51C220.5 66.5 218.5 88.5 218.5 88.5C218.5 88.5 217 102 210.5 111C204 120 200 123.5 188.5 128C177 132.5 52.3 144.9 45.5 146.5C38.7 148.1 33 143.5 31 141L3 167Z" stroke="black" stroke-width="7"/>
<circle cx="145" cy="85" r="10" fill="black"/>
<circle cx="145" cy="85" r="10" fill="black"/>
<circle cx="145" cy="85" r="10" fill="black"/>
<circle cx="84" cy="93" r="10" fill="black"/>
<circle cx="84" cy="93" r="10" fill="black"/>
<circle cx="84" cy="93" r="10" fill="black"/>
<circle cx="115" cy="89" r="10" fill="black"/>
<circle cx="115" cy="89" r="10" fill="black"/>
<circle cx="115" cy="89" r="10" fill="black"/>
</g>
<defs>
<clipPath id="clip0_119_443">
<rect width="222" height="200" fill="white"/>
</clipPath>
</defs>
</svg>
