<?xml version="1.0" encoding="utf-8"?>
<!-- Generator: Adobe Illustrator 16.0.0, SVG Export Plug-In . SVG Version: 6.00 Build 0)  -->
<!DOCTYPE svg PUBLIC "-//W3C//DTD SVG 1.1//EN" "http://www.w3.org/Graphics/SVG/1.1/DTD/svg11.dtd">
<svg version="1.1" id="Layer_1" xmlns="http://www.w3.org/2000/svg" xmlns:xlink="http://www.w3.org/1999/xlink" x="0px" y="0px"
	 width="612px" height="150px" viewBox="0 0 612 150" enable-background="new 0 0 612 150" xml:space="preserve">
<g>
	<path fill="#556793" d="M234.2,32.4h13.1c10.6,0,17.9,7.2,17.9,16.7v0.1c0,9.5-7.3,16.8-17.9,16.8h-13.1V32.4z M247.3,59.3
		c6,0,10.1-4.1,10.1-10v-0.1c0-6-4.1-10.1-10.1-10.1h-5.7v20.3H247.3z"/>
	<path fill="#556793" d="M269.7,53.3L269.7,53.3c0-7.5,6-13.5,14-13.5c8,0,13.9,5.9,13.9,13.3v0.1c0,7.4-6,13.4-14,13.4
		C275.6,66.6,269.7,60.7,269.7,53.3z M290.4,53.3L290.4,53.3c0-3.9-2.7-7.2-6.8-7.2c-4.2,0-6.7,3.2-6.7,7v0.1c0,3.8,2.7,7.1,6.8,7.1
		C287.9,60.3,290.4,57.1,290.4,53.3z"/>
	<path fill="#556793" d="M301.6,53.3L301.6,53.3c0-7.4,5.6-13.5,13.5-13.5c4.8,0,7.9,1.6,10.3,4.3l-4.5,4.8
		c-1.6-1.7-3.3-2.8-5.9-2.8c-3.6,0-6.2,3.2-6.2,7v0.1c0,3.9,2.5,7.1,6.5,7.1c2.4,0,4.1-1.1,5.9-2.7l4.3,4.3
		c-2.5,2.7-5.4,4.7-10.5,4.7C307.3,66.6,301.6,60.6,301.6,53.3z"/>
	<path fill="#556793" d="M330.3,31h7.3v18.7l8.5-9.4h8.7L345,50.4L355.2,66h-8.4l-6.7-10.5l-2.5,2.7V66h-7.3V31z"/>
	<path fill="#556793" d="M356.7,62.6l3.1-4.8c2.8,2,5.7,3.1,8.1,3.1c2.1,0,3.1-0.8,3.1-1.9v-0.1c0-1.6-2.5-2.1-5.3-3
		c-3.6-1.1-7.7-2.7-7.7-7.7v-0.1c0-5.2,4.2-8.2,9.4-8.2c3.3,0,6.8,1.1,9.6,3l-2.8,5c-2.5-1.5-5.1-2.4-7-2.4c-1.8,0-2.7,0.8-2.7,1.8
		v0.1c0,1.4,2.4,2.1,5.2,3.1c3.6,1.2,7.8,2.9,7.8,7.6v0.1c0,5.7-4.3,8.3-9.8,8.3C364.1,66.5,360.1,65.3,356.7,62.6z"/>
	<path fill="#556793" d="M383.5,58.7V46.5h-3.1v-6.2h3.1v-6.6h7.3v6.6h6v6.2h-6v11c0,1.7,0.7,2.5,2.4,2.5c1.3,0,2.5-0.3,3.6-0.9V65
		c-1.5,0.9-3.3,1.5-5.8,1.5C386.5,66.4,383.5,64.7,383.5,58.7z"/>
	<path fill="#556793" d="M400.2,53.3L400.2,53.3c0-7.5,6-13.5,14-13.5c8,0,13.9,5.9,13.9,13.3v0.1c0,7.4-6,13.4-14,13.4
		C406.1,66.6,400.2,60.7,400.2,53.3z M420.9,53.3L420.9,53.3c0-3.9-2.7-7.2-6.8-7.2c-4.2,0-6.7,3.2-6.7,7v0.1c0,3.8,2.7,7.1,6.8,7.1
		C418.4,60.3,420.9,57.1,420.9,53.3z"/>
	<path fill="#556793" d="M433.4,40.3h7.3v5.2c1.5-3.6,3.9-5.9,8.2-5.7v7.6h-0.4c-4.8,0-7.8,2.9-7.8,9.1V66h-7.3V40.3z"/>
	<path fill="#556793" d="M451.4,53.3L451.4,53.3c0-7.4,5.2-13.5,12.7-13.5c8.6,0,12.5,6.7,12.5,14c0,0.6,0,1.2-0.1,1.9h-17.9
		c0.7,3.3,3,5,6.3,5c2.4,0,4.2-0.8,6.2-2.6l4.2,3.7c-2.4,3-5.9,4.8-10.5,4.8C457.2,66.6,451.4,61.2,451.4,53.3z M469.6,51.1
		c-0.4-3.3-2.4-5.5-5.4-5.5c-3,0-5,2.2-5.6,5.5H469.6z"/>
	<path fill="#556793" d="M233,105.9L233,105.9c0-8.3,6.2-15.1,14.7-15.1c5.3,0,8.4,1.9,11.4,4.6l-2.2,2.4c-2.5-2.3-5.2-4-9.2-4
		c-6.4,0-11.3,5.2-11.3,11.9v0.1c0,6.7,4.9,12,11.3,12c4,0,6.6-1.5,9.4-4.2l2.2,2.1c-3,3.1-6.4,5.1-11.6,5.1
		C239.2,120.9,233,114.3,233,105.9z"/>
	<path fill="#556793" d="M264.5,98.9h3.2v5.6c1.6-3.6,4.7-6.2,8.8-6v3.5h-0.2c-4.7,0-8.5,3.4-8.5,9.9v8.6h-3.2V98.9z"/>
	<path fill="#556793" d="M289.9,118.1c3,0,5-1.2,6.8-3l2,1.8c-2.2,2.4-4.8,4-8.9,4c-5.9,0-10.7-4.5-10.7-11.2
		c0-6.2,4.4-11.2,10.3-11.2c6.4,0,10,5.1,10,11.4c0,0.3,0,0.6,0,1.1h-17.1C282.8,115.5,286.1,118.1,289.9,118.1z M296.2,108.4
		c-0.4-3.9-2.6-7.2-6.9-7.2c-3.7,0-6.5,3.1-7,7.2H296.2z"/>
	<path fill="#556793" d="M303.4,114.2L303.4,114.2c0-4.7,3.7-7.1,9.2-7.1c2.7,0,4.7,0.4,6.6,0.9v-0.7c0-3.8-2.3-5.8-6.4-5.8
		c-2.5,0-4.5,0.6-6.5,1.5l-1-2.6c2.4-1.1,4.7-1.8,7.8-1.8c3,0,5.4,0.8,6.9,2.4c1.5,1.5,2.2,3.6,2.2,6.3v13.1h-3.2v-3.2
		c-1.5,1.9-4,3.7-7.7,3.7C307.4,120.9,303.4,118.6,303.4,114.2z M319.2,112.5v-2c-1.6-0.5-3.7-0.9-6.3-0.9c-4,0-6.3,1.7-6.3,4.3v0.1
		c0,2.7,2.5,4.3,5.4,4.3C316,118.3,319.2,115.9,319.2,112.5z"/>
	<path fill="#556793" d="M330,114.7v-13h-3v-2.8h3v-6.5h3.2v6.5h6.8v2.8h-6.8v12.6c0,2.6,1.5,3.6,3.6,3.6c1.1,0,2-0.2,3.1-0.7v2.7
		c-1.1,0.6-2.3,0.9-3.9,0.9C332.6,120.8,330,119.1,330,114.7z"/>
	<path fill="#556793" d="M354.6,118.1c3,0,5-1.2,6.8-3l2,1.8c-2.2,2.4-4.8,4-8.9,4c-5.9,0-10.7-4.5-10.7-11.2
		c0-6.2,4.4-11.2,10.3-11.2c6.4,0,10,5.1,10,11.4c0,0.3,0,0.6,0,1.1H347C347.5,115.5,350.8,118.1,354.6,118.1z M360.8,108.4
		c-0.4-3.9-2.6-7.2-6.9-7.2c-3.7,0-6.5,3.1-7,7.2H360.8z"/>
	<path fill="#556793" d="M367.6,124c2.1-0.7,3-1.8,2.8-3.6h-1.5V116h3.8v3.7c0,3.4-1.5,5-4.6,5.7L367.6,124z"/>
	<path fill="#556793" d="M390.6,116.2l2-2.4c3,2.7,5.9,4.1,10,4.1c3.9,0,6.5-2.1,6.5-5v-0.1c0-2.7-1.5-4.2-7.6-5.5
		c-6.7-1.5-9.8-3.6-9.8-8.4v-0.1c0-4.6,4-7.9,9.6-7.9c4.2,0,7.3,1.2,10.2,3.6l-1.9,2.5c-2.7-2.2-5.4-3.2-8.4-3.2
		c-3.8,0-6.2,2.1-6.2,4.7v0.1c0,2.7,1.5,4.3,7.9,5.7c6.5,1.4,9.5,3.8,9.5,8.2v0.1c0,5-4.2,8.2-9.9,8.2
		C397.9,120.8,394.1,119.3,390.6,116.2z"/>
	<path fill="#556793" d="M418.6,90h3.2v12.6c1.4-2.3,3.7-4.2,7.4-4.2c5.2,0,8.2,3.5,8.2,8.6v13.4h-3.2v-12.6c0-4-2.2-6.5-5.9-6.5
		c-3.7,0-6.4,2.7-6.4,6.7v12.3h-3.2V90z"/>
	<path fill="#556793" d="M442.6,114.2L442.6,114.2c0-4.7,3.7-7.1,9.2-7.1c2.7,0,4.7,0.4,6.6,0.9v-0.7c0-3.8-2.3-5.8-6.4-5.8
		c-2.5,0-4.5,0.6-6.5,1.5l-1-2.6c2.4-1.1,4.7-1.8,7.8-1.8c3,0,5.4,0.8,6.9,2.4c1.5,1.5,2.2,3.6,2.2,6.3v13.1h-3.2v-3.2
		c-1.5,1.9-4,3.7-7.7,3.7C446.6,120.9,442.6,118.6,442.6,114.2z M458.4,112.5v-2c-1.6-0.5-3.7-0.9-6.3-0.9c-4,0-6.3,1.7-6.3,4.3v0.1
		c0,2.7,2.5,4.3,5.4,4.3C455.2,118.3,458.4,115.9,458.4,112.5z"/>
	<path fill="#556793" d="M468.3,98.9h3.2v5.6c1.6-3.6,4.7-6.2,8.8-6v3.5H480c-4.7,0-8.5,3.4-8.5,9.9v8.6h-3.2V98.9z"/>
	<path fill="#556793" d="M493.7,118.1c3,0,5-1.2,6.8-3l2,1.8c-2.2,2.4-4.8,4-8.9,4c-5.9,0-10.7-4.5-10.7-11.2
		c0-6.2,4.4-11.2,10.3-11.2c6.4,0,10,5.1,10,11.4c0,0.3,0,0.6,0,1.1h-17.1C486.6,115.5,489.9,118.1,493.7,118.1z M500,108.4
		c-0.4-3.9-2.6-7.2-6.9-7.2c-3.7,0-6.5,3.1-7,7.2H500z"/>
	<path fill="#556793" d="M506.8,124c2.1-0.7,3-1.8,2.8-3.6H508V116h3.8v3.7c0,3.4-1.5,5-4.6,5.7L506.8,124z"/>
	<path fill="#556793" d="M531.2,108.2V91.3h3.3V108c0,6.3,3.3,9.8,8.9,9.8c5.4,0,8.8-3.2,8.8-9.6V91.3h3.3V108
		c0,8.5-4.9,12.9-12.1,12.9C536.1,120.9,531.2,116.5,531.2,108.2z"/>
	<path fill="#556793" d="M560.9,117.7l1.6-2.3c2.3,1.7,4.9,2.7,7.4,2.7c2.6,0,4.5-1.3,4.5-3.4v-0.1c0-2.2-2.5-3-5.4-3.8
		c-3.4-1-7.1-2.1-7.1-6.1v-0.1c0-3.7,3.1-6.2,7.3-6.2c2.6,0,5.5,0.9,7.7,2.4l-1.5,2.4c-2-1.3-4.3-2.1-6.4-2.1
		c-2.5,0-4.2,1.3-4.2,3.1v0.1c0,2,2.7,2.8,5.5,3.7c3.3,1,6.9,2.3,6.9,6.2v0.1c0,4.1-3.4,6.4-7.7,6.4
		C566.7,120.8,563.3,119.6,560.9,117.7z"/>
	<path fill="#556793" d="M592.9,118.1c3,0,5-1.2,6.8-3l2,1.8c-2.2,2.4-4.8,4-8.9,4c-5.9,0-10.7-4.5-10.7-11.2
		c0-6.2,4.4-11.2,10.3-11.2c6.4,0,10,5.1,10,11.4c0,0.3,0,0.6,0,1.1h-17.1C585.7,115.5,589.1,118.1,592.9,118.1z M599.1,108.4
		c-0.4-3.9-2.6-7.2-6.9-7.2c-3.7,0-6.5,3.1-7,7.2H599.1z"/>
</g>
<polygon fill="#7785AB" points="88.6,141.6 4.8,117.2 4.8,34.8 88.6,10.5 "/>
<polygon fill="#7785AB" points="205.5,108.8 94.5,141.6 94.5,10.5 205.5,43.1 "/>
<path fill="#FFFFFF" d="M69.4,101.9c0,8.8-7.6,14.3-16.2,12.5c-7.9-1.6-13.7-8.9-13.7-16.4c0-7.5,5.9-13.3,13.8-12.9
	C61.9,85.6,69.4,93.1,69.4,101.9z"/>
<path fill="#FFFFFF" d="M50.4,44.6c0,5.9-4.7,11.2-10.2,11.8c-5.1,0.5-9-3.3-9-8.6c0-5.3,4-10.5,9.1-11.6
	C45.7,34.9,50.4,38.6,50.4,44.6z"/>
<path fill="#FFFFFF" d="M22.2,87.3c0,3.7-2.5,6.4-5.5,6c-2.8-0.3-5.1-3.4-5.1-6.8c0-3.4,2.2-6.1,5.1-6.1
	C19.7,80.5,22.2,83.6,22.2,87.3z"/>
<polygon fill="none" stroke="#FFFFFF" stroke-width="5.6041" stroke-miterlimit="10" points="40.3,47.1 57,102.7 16.6,87.3 "/>
<line opacity="0.43" fill="none" stroke="#FFFFFF" stroke-width="4.4525" stroke-linecap="round" stroke-miterlimit="10" enable-background="new    " x1="119.1" y1="34.8" x2="119.1" y2="114.3"/>
<line opacity="0.43" fill="none" stroke="#FFFFFF" stroke-width="4.4525" stroke-linecap="round" stroke-miterlimit="10" enable-background="new    " x1="136.4" y1="38.3" x2="136.4" y2="110.9"/>
<line opacity="0.43" fill="none" stroke="#FFFFFF" stroke-width="4.4525" stroke-linecap="round" stroke-miterlimit="10" enable-background="new    " x1="150.8" y1="41.2" x2="150.8" y2="108"/>
<line opacity="0.43" fill="none" stroke="#FFFFFF" stroke-width="4.4525" stroke-linecap="round" stroke-miterlimit="10" enable-background="new    " x1="163.2" y1="43.8" x2="163.2" y2="105.7"/>
<line opacity="0.43" fill="none" stroke="#FFFFFF" stroke-width="4.4525" stroke-linecap="round" stroke-miterlimit="10" enable-background="new    " x1="173.7" y1="46" x2="173.7" y2="103.6"/>
<line opacity="0.43" fill="none" stroke="#FFFFFF" stroke-width="4.4525" stroke-linecap="round" stroke-miterlimit="10" enable-background="new    " x1="183" y1="48" x2="183" y2="101.9"/>
<line opacity="0.43" fill="none" stroke="#FFFFFF" stroke-width="4.4525" stroke-linecap="round" stroke-miterlimit="10" enable-background="new    " x1="191.1" y1="49.6" x2="191.1" y2="100.3"/>
<line opacity="0.43" fill="none" stroke="#FFFFFF" stroke-width="4.4525" stroke-linecap="round" stroke-miterlimit="10" enable-background="new    " x1="198.3" y1="51.2" x2="198.3" y2="98.9"/>
<polygon fill="#7785AB" points="119.7,28.1 94.5,22 94.5,6.3 119.7,14.2 "/>
<polygon fill="#7785AB" points="205.5,49.4 197.8,47.6 197.8,38.4 205.5,40.7 "/>
<polygon fill="#7785AB" points="88.6,21.2 73.4,24.9 73.4,10.9 88.6,6.2 "/>
<polygon fill="#7785AB" points="11.5,40.3 4.8,41.9 4.8,31.9 11.5,29.8 "/>
<polygon fill="#7785AB" points="88.5,145.6 72.3,140.6 72.3,126.2 88.5,130.1 "/>
<polygon fill="#7785AB" points="11.1,121.7 4.8,119.8 4.8,109.9 11.1,111.4 "/>
<polygon fill="#7785AB" points="119.7,137.7 94.5,145.6 94.5,130.5 119.7,124.3 "/>
<polygon fill="#7785AB" points="205.4,111 197.8,113.4 197.8,105.6 205.4,103.7 "/>
<path fill="#7785AB" d="M39.9,25.2c0,1.7-1.3,3.4-2.8,3.8c-1.5,0.4-2.7-0.6-2.7-2.2c0-1.6,1.2-3.3,2.7-3.8
	C38.6,22.5,39.9,23.5,39.9,25.2z"/>
<path fill="#7785AB" d="M39.9,127.1c0,1.7-1.3,2.6-2.8,2.2c-1.5-0.5-2.7-2.1-2.7-3.8c0-1.7,1.2-2.6,2.7-2.2
	C38.6,123.8,39.9,125.5,39.9,127.1z"/>
<g>
</g>
<g>
</g>
<g>
</g>
<g>
</g>
<g>
</g>
<g>
</g>
</svg>
