<svg width="612" height="596" viewBox="0 0 612 596" fill="none" xmlns="http://www.w3.org/2000/svg">
<g clip-path="url(#clip0_432_125)">
<path d="M241.853 229.345V184.628C241.602 184.628 241.351 184.628 241.226 184.628C230.563 184.628 220.152 185.382 209.865 186.638L215.636 230.978C224.04 229.848 232.696 229.22 241.477 229.22C241.602 229.345 241.728 229.345 241.853 229.345Z" fill="#5CB323"/>
<path d="M92.3257 405.45L135.98 411.228C136.607 406.581 137.485 402.059 138.614 397.662C139.743 393.14 141.248 388.87 143.004 384.599L102.361 367.642L60.7142 350.307C57.4527 358.095 54.8184 366.134 52.5604 374.424L8.90645 362.743C6.27216 372.792 4.13963 383.092 2.75977 393.643L47.6682 399.546L92.3257 405.45Z" fill="#5CB323"/>
<path d="M304.072 192.918L292.406 236.003C300.685 238.264 308.839 241.027 316.617 244.293L333.802 203.093C324.269 199.073 314.233 195.682 304.072 192.918Z" fill="#5CB323"/>
<path d="M149.904 544.375C144.635 540.355 139.743 536.084 135.102 531.437L103.239 563.342C109.26 569.371 115.658 575.023 122.432 580.173L149.904 544.375Z" fill="#5CB323"/>
<path d="M96.2147 464.11L138.74 452.805C137.611 448.409 136.607 443.887 135.98 439.239C135.353 434.592 134.976 429.944 134.976 425.171H90.9461C90.9461 431.828 91.4478 438.486 92.3259 444.892L47.6684 450.67C46.5394 442.379 46.0377 433.838 46.0377 425.171H0.75293V425.297C0.75293 435.848 1.38014 446.273 2.76001 456.573C4.13988 467.125 6.14696 477.425 8.78125 487.473L52.6861 475.792L96.2147 464.11Z" fill="#5CB323"/>
<path d="M157.054 489.734C154.295 486.092 151.66 482.198 149.402 478.178C147.144 474.159 145.012 470.139 143.256 465.868L102.612 482.7C105.121 488.729 108.006 494.633 111.268 500.285L72.2551 522.895L32.8662 545.631C38.1348 554.8 44.0306 563.467 50.3027 571.757C56.7003 580.048 63.5996 587.961 71.0007 595.498L103.239 563.342C97.2182 557.312 91.5733 550.906 86.4301 544.123L122.181 516.615L157.054 489.734Z" fill="#5CB323"/>
<path d="M269.199 322.045C273.715 323.301 278.106 324.683 282.245 326.567L299.18 285.87C293.159 283.357 287.012 281.222 280.614 279.589L269.199 322.045Z" fill="#5CB323"/>
<path d="M221.406 275.695L215.636 230.978C207.106 232.109 198.701 233.742 190.547 236.003L179.007 192.667C168.846 195.431 158.81 198.822 149.151 202.842L166.337 244.293L183.523 285.995C177.501 288.507 171.606 291.522 165.961 294.788L188.039 332.848C192.053 330.587 196.192 328.451 200.457 326.693C204.722 324.934 209.113 323.427 213.503 322.171C217.894 320.915 222.535 320.036 227.177 319.407C231.818 318.779 236.71 318.403 241.477 318.403C241.602 318.403 241.728 318.403 241.979 318.403V274.314C241.853 274.314 241.728 274.314 241.477 274.314C234.578 274.439 227.929 274.816 221.406 275.695Z" fill="#5CB323"/>
<path d="M241.854 274.439C248.502 274.439 255.025 274.942 261.423 275.821L267.444 231.104C259.039 229.973 250.634 229.471 241.979 229.345L241.854 274.439Z" fill="#5CB323"/>
<path d="M122.181 269.917L94.8346 234.244C86.5554 240.65 78.6525 247.559 71.126 254.97L102.988 286.874L134.851 318.779C139.492 314.132 144.384 309.735 149.653 305.716C154.796 301.696 160.316 298.054 165.96 294.662L143.381 255.598C135.98 259.994 128.955 264.767 122.181 269.917Z" fill="#5CB323"/>
<path d="M156.678 360.482C159.563 356.713 162.573 353.196 165.835 349.931L134.725 318.779C130.084 323.427 125.819 328.451 121.805 333.727L156.678 360.482Z" fill="#5CB323"/>
<path d="M50.4282 278.71C44.0306 287 38.1348 295.793 32.8662 304.837L71.8788 327.447L110.891 350.056C114.153 344.278 117.791 338.877 121.805 333.601L86.0538 306.093L50.4282 278.71Z" fill="#5CB323"/>
<path d="M361.901 217.161L339.447 255.723L316.742 294.662C322.513 297.928 327.907 301.696 333.175 305.716L360.773 270.043L387.994 234.747C379.714 228.34 371.059 222.437 361.901 217.161Z" fill="#5CB323"/>
<path d="M339.573 255.723C332.172 251.452 324.52 247.684 316.617 244.293L299.181 285.87C305.327 288.382 311.098 291.396 316.743 294.662L339.573 255.723Z" fill="black"/>
<path d="M261.422 275.695L255.651 319.282C260.293 319.91 264.809 320.789 269.199 322.045L280.74 279.589C274.342 277.956 267.945 276.575 261.422 275.695Z" fill="black"/>
<path d="M241.477 229.345C232.696 229.345 224.04 229.973 215.636 231.104L221.406 275.821C227.929 274.942 234.703 274.439 241.477 274.439C241.602 274.439 241.728 274.439 241.979 274.439V229.345C241.728 229.345 241.602 229.345 241.477 229.345Z" fill="black"/>
<path d="M60.7139 350.433L102.361 367.767C104.87 361.738 107.755 355.834 111.016 350.182L72.0037 327.572C67.7386 334.857 63.9754 342.52 60.7139 350.433Z" fill="black"/>
<path d="M103.114 563.216L134.976 531.311C130.335 526.664 126.07 521.639 122.056 516.489L86.3047 543.998C91.5733 550.781 97.2182 557.187 103.114 563.216Z" fill="black"/>
<path d="M111.017 350.056L149.026 372.164C151.284 368.144 153.918 364.25 156.678 360.482L121.805 333.601C117.916 338.877 114.278 344.404 111.017 350.056Z" fill="black"/>
<path d="M91.0713 424.92C91.0713 425.045 91.0713 425.045 91.0713 425.171H135.102C135.102 425.045 135.102 425.045 135.102 424.92C135.102 420.272 135.478 415.75 135.98 411.228L92.3257 405.45C91.5731 411.856 91.0713 418.388 91.0713 424.92Z" fill="black"/>
<path d="M60.8393 499.909L102.486 482.7C99.9774 476.671 97.8448 470.516 96.2141 464.235L52.6855 475.791C54.9435 484.082 57.7032 492.121 60.8393 499.909Z" fill="black"/>
<path d="M149.653 305.716L176.498 340.635C180.136 337.746 184.025 335.109 188.039 332.848L165.961 294.788C160.316 298.054 154.796 301.696 149.653 305.716Z" fill="black"/>
<path d="M202.841 534.075C200.583 534.075 198.576 533.698 196.694 532.944C194.812 532.19 193.182 531.06 191.927 529.678C190.547 528.297 189.544 526.664 188.791 524.779C188.038 522.895 187.662 520.886 187.662 518.625C187.662 516.364 188.038 514.354 188.791 512.47C189.544 510.586 190.547 508.953 191.927 507.571C193.307 506.189 194.812 505.059 196.694 504.305C198.576 503.551 200.583 503.175 202.841 503.175C205.099 503.175 207.106 503.551 208.987 504.305C210.869 505.059 212.5 506.189 213.754 507.571C215.134 508.953 216.138 510.586 216.89 512.47C217.643 514.354 218.019 516.364 218.019 518.625C218.019 520.886 217.643 522.895 216.89 524.779C216.138 526.664 215.134 528.297 213.754 529.678C212.374 531.06 210.869 532.19 208.987 532.944C207.106 533.698 204.973 534.075 202.841 534.075ZM202.841 530.432C204.471 530.432 206.102 530.181 207.357 529.553C208.736 528.925 209.865 528.045 210.869 527.04C211.873 526.036 212.625 524.779 213.127 523.272C213.629 521.89 213.88 520.383 213.88 518.75C213.88 517.117 213.629 515.61 213.127 514.228C212.625 512.846 211.873 511.59 210.869 510.46C209.865 509.455 208.736 508.576 207.357 507.948C205.977 507.32 204.471 507.068 202.841 507.068C201.21 507.068 199.579 507.32 198.325 507.948C196.945 508.576 195.816 509.455 194.812 510.46C193.809 511.465 193.056 512.721 192.554 514.228C192.053 515.61 191.802 517.117 191.802 518.75C191.802 520.383 192.053 521.89 192.554 523.272C193.056 524.654 193.809 525.91 194.812 527.04C195.816 528.045 196.945 528.925 198.325 529.553C199.579 530.055 201.084 530.432 202.841 530.432Z" fill="black"/>
<path d="M223.037 513.726H226.8V516.74H226.926C227.428 515.735 228.18 514.856 229.309 514.228C230.438 513.6 231.818 513.223 233.323 513.223C234.201 513.223 235.205 513.349 236.083 513.6C236.961 513.851 237.714 514.354 238.341 514.982C238.968 515.61 239.47 516.363 239.846 517.368C240.223 518.373 240.474 519.504 240.474 520.76V533.446H236.71V521.89C236.71 521.011 236.585 520.257 236.334 519.504C236.083 518.75 235.707 518.373 235.33 517.871C234.954 517.494 234.452 517.243 233.951 516.991C233.449 516.866 232.822 516.74 232.32 516.74C231.567 516.74 230.815 516.866 230.187 517.117C229.56 517.368 228.933 517.745 228.431 518.248C227.929 518.75 227.553 519.504 227.302 520.257C227.051 521.137 226.926 522.016 226.926 523.146V533.321H223.163V513.726H223.037Z" fill="black"/>
<path d="M256.781 516.992H251.387V525.91C251.387 526.412 251.387 527.04 251.387 527.543C251.387 528.045 251.512 528.548 251.638 529.05C251.763 529.427 252.139 529.804 252.516 530.055C252.892 530.306 253.394 530.432 254.146 530.432C254.648 530.432 255.025 530.432 255.526 530.306C256.028 530.181 256.404 530.055 256.781 529.804V533.195C256.279 533.446 255.777 533.572 255.025 533.698C254.272 533.823 253.77 533.823 253.394 533.823C252.014 533.823 250.885 533.572 250.007 533.195C249.254 532.818 248.627 532.316 248.251 531.688C247.874 531.06 247.623 530.306 247.623 529.553C247.498 528.799 247.498 527.92 247.498 527.166V516.866H243.358V513.6H247.623V508.073H251.387V513.6H256.781V516.992Z" fill="black"/>
<path d="M261.548 516.112C262.552 515.107 263.806 514.479 265.186 513.977C266.566 513.474 267.946 513.223 269.325 513.223C270.705 513.223 271.96 513.349 273.089 513.726C274.092 514.102 274.97 514.605 275.598 515.233C276.225 515.861 276.727 516.489 277.103 517.368C277.479 518.122 277.605 519.001 277.605 519.88V529.929C277.605 530.683 277.605 531.311 277.605 531.813C277.605 532.441 277.73 532.944 277.73 533.446H274.469C274.343 532.441 274.343 531.437 274.343 530.432H274.218C273.34 531.688 272.462 532.567 271.333 533.069C270.204 533.572 268.949 533.823 267.444 533.823C266.566 533.823 265.688 533.698 264.81 533.446C263.931 533.195 263.304 532.818 262.677 532.316C262.05 531.813 261.548 531.185 261.172 530.432C260.795 529.678 260.67 528.799 260.67 527.919C260.67 526.663 260.921 525.533 261.548 524.779C262.175 523.9 262.928 523.272 263.806 522.644C264.81 522.141 265.939 521.765 267.193 521.513C268.447 521.262 269.953 521.137 271.333 521.137H274.092V520.257C274.092 519.755 273.967 519.252 273.841 518.75C273.59 518.248 273.34 517.745 272.963 517.368C272.587 516.991 272.085 516.615 271.458 516.363C270.831 516.112 270.204 515.987 269.325 515.987C268.573 515.987 267.946 516.112 267.444 516.238C266.942 516.363 266.44 516.489 265.939 516.74C265.437 516.991 265.06 517.243 264.684 517.494C264.308 517.745 263.931 517.996 263.681 518.248L261.548 516.112ZM271.96 523.9C271.082 523.9 270.204 523.9 269.2 524.026C268.322 524.151 267.444 524.277 266.691 524.528C265.939 524.779 265.311 525.156 264.81 525.659C264.308 526.161 264.057 526.789 264.057 527.543C264.057 528.673 264.433 529.552 265.186 529.929C265.938 530.432 266.942 530.683 268.322 530.683C269.325 530.683 270.204 530.557 270.956 530.18C271.709 529.804 272.211 529.427 272.712 528.799C273.214 528.296 273.465 527.668 273.716 526.915C273.967 526.287 273.967 525.533 273.967 524.905V523.649H271.96V523.9Z" fill="black"/>
<path d="M282.998 513.726H286.761V516.74H286.887C287.138 516.238 287.514 515.735 287.89 515.358C288.267 514.982 288.768 514.605 289.27 514.228C289.772 513.977 290.399 513.726 290.901 513.474C291.528 513.349 292.155 513.223 292.783 513.223C293.41 513.223 293.912 513.349 294.413 513.474L294.288 517.494C294.037 517.368 293.661 517.368 293.41 517.243C293.159 517.243 292.783 517.117 292.532 517.117C290.65 517.117 289.27 517.619 288.392 518.624C287.389 519.629 286.887 521.262 286.887 523.398V533.321H283.123V513.726H282.998Z" fill="black"/>
<path d="M297.424 506.692C297.424 505.938 297.675 505.31 298.176 504.807C298.678 504.305 299.305 504.054 300.058 504.054C300.811 504.054 301.438 504.305 301.94 504.807C302.442 505.31 302.692 505.938 302.692 506.692C302.692 507.445 302.442 508.073 301.94 508.576C301.438 509.078 300.811 509.329 300.058 509.329C299.305 509.329 298.678 509.078 298.176 508.576C297.675 508.073 297.424 507.445 297.424 506.692ZM298.302 513.726H302.065V533.321H298.302V513.726Z" fill="black"/>
<path d="M306.581 523.523C306.581 522.141 306.832 520.76 307.334 519.504C307.835 518.248 308.588 517.117 309.592 516.238C310.47 515.359 311.599 514.605 312.853 513.977C314.108 513.474 315.487 513.223 316.993 513.223C318.498 513.223 319.878 513.474 321.132 513.977C322.387 514.479 323.516 515.233 324.394 516.238C325.272 517.117 326.025 518.248 326.652 519.504C327.154 520.76 327.405 522.141 327.405 523.523C327.405 524.905 327.154 526.287 326.652 527.543C326.15 528.799 325.397 529.929 324.394 530.809C323.516 531.688 322.387 532.441 321.132 532.944C319.878 533.446 318.498 533.698 316.993 533.698C315.487 533.698 314.108 533.446 312.853 532.944C311.599 532.441 310.47 531.688 309.592 530.809C308.714 529.929 307.961 528.799 307.334 527.543C306.832 526.287 306.581 525.03 306.581 523.523ZM310.595 523.523C310.595 524.528 310.721 525.407 311.097 526.287C311.348 527.166 311.85 527.794 312.351 528.422C312.853 529.05 313.606 529.427 314.359 529.804C315.111 530.18 316.115 530.306 316.993 530.306C317.871 530.306 318.874 530.18 319.627 529.804C320.38 529.427 321.132 529.05 321.634 528.422C322.136 527.794 322.638 527.166 322.889 526.287C323.139 525.407 323.39 524.528 323.39 523.523C323.39 522.518 323.265 521.639 322.889 520.76C322.638 519.88 322.136 519.252 321.634 518.624C321.132 517.996 320.38 517.619 319.627 517.243C318.874 516.866 317.871 516.74 316.993 516.74C316.115 516.74 315.111 516.866 314.359 517.243C313.606 517.619 312.853 518.122 312.351 518.624C311.85 519.252 311.348 519.88 311.097 520.76C310.721 521.639 310.595 522.518 310.595 523.523Z" fill="black"/>
<path d="M349.106 504.054H345.092V533.446H349.106V504.054Z" fill="black"/>
<path d="M355.504 513.726H359.267V516.74H359.393C359.894 515.735 360.647 514.856 361.776 514.228C362.905 513.6 364.285 513.223 365.79 513.223C366.668 513.223 367.672 513.349 368.55 513.6C369.428 513.851 370.181 514.354 370.808 514.982C371.435 515.61 371.937 516.363 372.313 517.368C372.69 518.373 372.94 519.504 372.94 520.76V533.446H369.177V521.89C369.177 521.011 369.052 520.257 368.801 519.504C368.55 518.75 368.174 518.373 367.797 517.871C367.421 517.494 366.919 517.243 366.417 516.991C365.916 516.866 365.288 516.74 364.787 516.74C364.034 516.74 363.281 516.866 362.654 517.117C362.027 517.368 361.4 517.745 360.898 518.248C360.396 518.75 360.02 519.504 359.769 520.257C359.518 521.137 359.393 522.016 359.393 523.146V533.321H355.629V513.726H355.504Z" fill="black"/>
<path d="M388.872 518.624C388.37 518.122 387.868 517.62 387.241 517.243C386.614 516.866 385.736 516.74 384.857 516.74C383.979 516.74 383.227 516.866 382.599 517.243C381.972 517.62 381.596 518.122 381.596 518.876C381.596 519.504 381.721 519.881 382.098 520.257C382.474 520.634 382.85 520.885 383.478 521.137C383.979 521.388 384.481 521.513 385.108 521.639C385.736 521.765 386.237 521.89 386.614 521.89C387.366 522.142 388.119 522.267 388.872 522.644C389.624 522.895 390.126 523.272 390.753 523.774C391.255 524.277 391.631 524.779 392.008 525.407C392.259 526.035 392.384 526.789 392.384 527.668C392.384 528.799 392.133 529.678 391.631 530.557C391.13 531.311 390.502 531.939 389.75 532.442C388.997 532.944 388.119 533.321 387.241 533.572C386.237 533.823 385.359 533.949 384.356 533.949C382.725 533.949 381.345 533.698 380.091 533.195C378.836 532.693 377.707 531.813 376.829 530.432L379.589 528.171C380.216 528.799 380.843 529.301 381.596 529.804C382.349 530.306 383.227 530.557 384.356 530.557C384.857 530.557 385.359 530.557 385.736 530.432C386.237 530.306 386.614 530.181 386.99 529.929C387.366 529.678 387.617 529.427 387.868 529.176C388.119 528.799 388.244 528.548 388.244 528.045C388.244 527.543 388.119 527.04 387.743 526.663C387.366 526.287 386.99 526.035 386.488 525.784C385.986 525.533 385.485 525.407 384.983 525.282C384.481 525.156 383.979 525.031 383.603 525.031C382.85 524.779 382.098 524.654 381.345 524.403C380.592 524.151 379.965 523.774 379.463 523.398C378.962 523.021 378.46 522.518 378.084 521.765C377.707 521.137 377.582 520.383 377.582 519.378C377.582 518.373 377.833 517.494 378.209 516.74C378.585 515.987 379.213 515.359 379.965 514.856C380.718 514.354 381.47 513.977 382.349 513.726C383.227 513.474 384.105 513.349 385.108 513.349C386.488 513.349 387.743 513.6 388.872 514.103C390.126 514.605 391.004 515.484 391.757 516.615L388.872 518.624Z" fill="black"/>
<path d="M408.064 516.992H402.67V525.91C402.67 526.412 402.67 527.04 402.67 527.543C402.67 528.045 402.796 528.548 402.921 529.05C403.047 529.427 403.423 529.804 403.799 530.055C404.176 530.306 404.677 530.432 405.43 530.432C405.932 530.432 406.308 530.432 406.81 530.306C407.312 530.181 407.688 530.055 408.064 529.804V533.195C407.563 533.446 407.061 533.572 406.308 533.698C405.556 533.823 405.054 533.823 404.677 533.823C403.298 533.823 402.169 533.572 401.29 533.195C400.538 532.818 399.911 532.316 399.534 531.688C399.158 531.06 398.907 530.306 398.907 529.553C398.782 528.799 398.782 527.92 398.782 527.166V516.866H394.517V513.6H398.782V508.073H402.545V513.6H407.939V516.992H408.064Z" fill="black"/>
<path d="M411.451 506.692C411.451 505.938 411.702 505.31 412.204 504.807C412.706 504.305 413.333 504.054 414.085 504.054C414.838 504.054 415.465 504.305 415.967 504.807C416.469 505.31 416.72 505.938 416.72 506.692C416.72 507.445 416.469 508.073 415.967 508.576C415.465 509.078 414.838 509.329 414.085 509.329C413.333 509.329 412.706 509.078 412.204 508.576C411.828 508.073 411.451 507.445 411.451 506.692ZM412.329 513.726H416.093V533.321H412.329V513.726Z" fill="black"/>
<path d="M432.776 516.992H427.382V525.91C427.382 526.412 427.382 527.04 427.382 527.543C427.382 528.045 427.508 528.548 427.633 529.05C427.759 529.427 428.135 529.804 428.511 530.055C428.888 530.306 429.389 530.432 430.142 530.432C430.644 530.432 431.02 530.432 431.522 530.306C432.024 530.181 432.4 530.055 432.776 529.804V533.195C432.275 533.446 431.773 533.572 431.02 533.698C430.267 533.823 429.766 533.823 429.389 533.823C428.009 533.823 426.88 533.572 426.002 533.195C425.25 532.818 424.623 532.316 424.246 531.688C423.87 531.06 423.619 530.306 423.619 529.553C423.494 528.799 423.494 527.92 423.494 527.166V516.866H419.229V513.6H423.494V508.073H427.257V513.6H432.651V516.992H432.776Z" fill="black"/>
<path d="M454.353 533.446H450.589V530.432H450.464C449.962 531.437 449.209 532.316 448.08 532.944C446.951 533.572 445.572 533.949 444.066 533.949C443.063 533.949 442.185 533.823 441.307 533.572C440.428 533.321 439.676 532.818 439.049 532.19C438.421 531.562 437.92 530.808 437.543 529.804C437.167 528.799 436.916 527.668 436.916 526.412V513.726H440.679V525.282C440.679 526.161 440.805 526.915 441.056 527.668C441.307 528.296 441.683 528.799 442.059 529.301C442.435 529.678 442.937 530.055 443.439 530.18C443.941 530.306 444.568 530.432 445.07 530.432C445.822 530.432 446.575 530.306 447.202 530.055C447.83 529.804 448.457 529.427 448.959 528.924C449.46 528.422 449.837 527.668 450.087 526.915C450.338 526.035 450.464 525.156 450.464 524.026V513.851H454.227V533.446H454.353Z" fill="black"/>
<path d="M470.786 516.992H465.392V525.91C465.392 526.412 465.392 527.04 465.392 527.543C465.392 528.045 465.517 528.548 465.643 529.05C465.768 529.427 466.145 529.804 466.521 530.055C466.897 530.306 467.399 530.432 468.152 530.432C468.654 530.432 469.03 530.432 469.532 530.306C470.033 530.181 470.41 530.055 470.786 529.804V533.195C470.284 533.446 469.783 533.572 469.03 533.698C468.277 533.823 467.775 533.823 467.399 533.823C466.019 533.823 464.89 533.572 464.012 533.195C463.26 532.818 462.632 532.316 462.256 531.688C461.88 531.06 461.629 530.306 461.629 529.553C461.503 528.799 461.503 527.92 461.503 527.166V516.866H457.238V513.6H461.503V508.073H465.267V513.6H470.661V516.992H470.786Z" fill="black"/>
<path d="M477.685 524.905C477.685 525.784 477.81 526.538 478.186 527.292C478.563 528.045 479.064 528.548 479.692 529.05C480.319 529.553 480.946 529.929 481.824 530.181C482.577 530.432 483.455 530.557 484.333 530.557C485.462 530.557 486.466 530.306 487.344 529.804C488.222 529.301 488.974 528.548 489.727 527.668L492.487 529.804C490.354 532.442 487.469 533.823 483.831 533.823C482.326 533.823 480.946 533.572 479.692 533.07C478.437 532.567 477.434 531.814 476.556 530.934C475.678 530.055 475.05 528.924 474.549 527.668C474.047 526.412 473.796 525.031 473.796 523.649C473.796 522.142 474.047 520.885 474.549 519.504C475.05 518.248 475.803 517.117 476.681 516.238C477.559 515.359 478.688 514.605 479.943 514.103C481.197 513.6 482.577 513.349 483.957 513.349C485.713 513.349 487.218 513.6 488.347 514.228C489.602 514.856 490.48 515.61 491.358 516.615C492.111 517.62 492.738 518.75 492.989 519.881C493.365 521.137 493.49 522.393 493.49 523.649V525.031H477.685V524.905ZM489.476 521.89C489.476 521.011 489.351 520.257 489.1 519.629C488.849 519.001 488.473 518.373 488.096 517.871C487.595 517.368 487.093 516.992 486.34 516.615C485.587 516.363 484.835 516.238 483.831 516.238C482.953 516.238 482.075 516.363 481.322 516.74C480.57 517.117 479.943 517.494 479.441 518.122C478.939 518.624 478.563 519.253 478.186 520.006C477.936 520.634 477.81 521.388 477.81 522.016H489.476V521.89Z" fill="black"/>
<path d="M194.938 561.96H190.673V558.694H194.938V554.298C194.938 551.66 195.44 549.776 196.443 548.394C197.447 547.012 199.203 546.51 201.586 546.51C201.963 546.51 202.464 546.51 202.841 546.51C203.343 546.51 203.844 546.635 204.346 546.761L203.97 550.027C203.593 549.901 203.217 549.776 202.966 549.776C202.59 549.776 202.339 549.65 201.837 549.65C201.085 549.65 200.583 549.776 200.206 549.901C199.83 550.152 199.454 550.404 199.203 550.78C198.952 551.157 198.827 551.66 198.701 552.162C198.576 552.665 198.576 553.293 198.576 554.046V558.568H202.966V561.834H198.45V578.289H194.687V561.96H194.938Z" fill="black"/>
<path d="M205.601 568.491C205.601 567.11 205.851 565.728 206.353 564.472C206.855 563.216 207.608 562.085 208.611 561.206C209.489 560.327 210.618 559.573 211.873 558.945C213.127 558.443 214.507 558.191 216.012 558.191C217.518 558.191 218.897 558.443 220.152 558.945C221.406 559.448 222.535 560.201 223.413 561.206C224.292 562.085 225.044 563.216 225.671 564.472C226.173 565.728 226.424 567.11 226.424 568.491C226.424 569.873 226.173 571.255 225.671 572.511C225.17 573.767 224.417 574.898 223.413 575.777C222.535 576.656 221.406 577.41 220.152 577.912C218.897 578.415 217.518 578.666 216.012 578.666C214.507 578.666 213.127 578.415 211.873 577.912C210.618 577.41 209.489 576.656 208.611 575.777C207.733 574.898 206.98 573.767 206.353 572.511C205.851 571.255 205.601 569.999 205.601 568.491ZM209.489 568.491C209.489 569.496 209.615 570.376 209.991 571.255C210.242 572.134 210.744 572.762 211.245 573.39C211.747 574.018 212.5 574.395 213.253 574.772C214.005 575.149 215.009 575.274 215.887 575.274C216.89 575.274 217.769 575.149 218.521 574.772C219.274 574.395 220.026 574.018 220.528 573.39C221.03 572.762 221.532 572.134 221.783 571.255C222.034 570.376 222.284 569.496 222.284 568.491C222.284 567.487 222.159 566.607 221.783 565.728C221.532 564.849 221.03 564.221 220.528 563.593C220.026 562.965 219.274 562.588 218.521 562.211C217.769 561.834 216.765 561.709 215.887 561.709C214.883 561.709 214.005 561.834 213.253 562.211C212.5 562.588 211.747 562.965 211.245 563.593C210.744 564.221 210.242 564.849 209.991 565.728C209.615 566.607 209.489 567.487 209.489 568.491Z" fill="black"/>
<path d="M231.065 558.694H234.829V561.709H234.954C235.205 561.206 235.581 560.704 235.958 560.327C236.334 559.95 236.836 559.573 237.338 559.196C237.839 558.945 238.467 558.694 238.968 558.443C239.596 558.317 240.223 558.191 240.85 558.191C241.477 558.191 241.979 558.317 242.481 558.443L242.355 562.462C242.104 562.337 241.728 562.337 241.477 562.211C241.226 562.211 240.85 562.085 240.599 562.085C238.717 562.085 237.338 562.588 236.459 563.593C235.456 564.598 234.954 566.23 234.954 568.366V578.289H231.191V558.694H231.065Z" fill="black"/>
<path d="M279.612 555.303C278.734 554.172 277.73 553.418 276.476 552.79C275.221 552.162 273.841 551.911 272.587 551.911C270.956 551.911 269.451 552.162 268.071 552.79C266.691 553.418 265.562 554.298 264.684 555.303C263.68 556.433 263.053 557.689 262.426 559.071C261.924 560.578 261.673 562.085 261.673 563.718C261.673 565.226 261.924 566.733 262.426 568.115C262.928 569.496 263.68 570.753 264.559 571.757C265.437 572.762 266.691 573.642 267.945 574.27C269.325 574.898 270.831 575.149 272.587 575.149C274.218 575.149 275.723 574.772 276.977 574.144C278.232 573.39 279.361 572.511 280.239 571.255L283.626 573.767C283.375 574.018 282.999 574.521 282.497 575.023C281.995 575.651 281.242 576.154 280.364 576.782C279.486 577.41 278.357 577.787 277.103 578.289C275.848 578.666 274.343 578.917 272.712 578.917C270.454 578.917 268.322 578.415 266.44 577.535C264.559 576.656 262.928 575.526 261.673 574.018C260.419 572.637 259.415 571.004 258.663 569.12C257.91 567.361 257.659 565.477 257.659 563.593C257.659 561.332 258.036 559.196 258.788 557.312C259.541 555.428 260.544 553.795 261.924 552.288C263.304 550.906 264.809 549.776 266.691 549.022C268.573 548.268 270.58 547.892 272.838 547.892C274.719 547.892 276.726 548.268 278.483 549.022C280.364 549.776 281.87 550.906 282.999 552.414L279.612 555.303Z" fill="black"/>
<path d="M287.891 561.08C288.894 560.076 290.149 559.448 291.529 558.945C292.908 558.443 294.288 558.191 295.668 558.191C297.048 558.191 298.303 558.317 299.431 558.694C300.435 559.071 301.313 559.573 301.94 560.201C302.568 560.829 303.069 561.457 303.446 562.337C303.822 563.09 303.947 563.969 303.947 564.849V574.898C303.947 575.651 303.947 576.279 303.947 576.782C303.947 577.41 304.073 577.912 304.073 578.415H300.811C300.686 577.41 300.686 576.405 300.686 575.4H300.56C299.682 576.656 298.804 577.535 297.675 578.038C296.546 578.54 295.292 578.791 293.787 578.791C292.908 578.791 292.03 578.666 291.152 578.415C290.274 578.163 289.647 577.787 289.02 577.284C288.393 576.782 287.891 576.154 287.514 575.4C287.138 574.646 287.013 573.767 287.013 572.888C287.013 571.632 287.264 570.501 287.891 569.748C288.518 568.868 289.271 568.24 290.149 567.612C291.152 567.11 292.281 566.733 293.536 566.482C294.79 566.23 296.295 566.105 297.675 566.105H300.435V565.226C300.435 564.723 300.31 564.221 300.184 563.718C299.933 563.216 299.682 562.713 299.306 562.337C298.93 561.96 298.428 561.583 297.801 561.332C297.174 561.08 296.546 560.955 295.668 560.955C294.916 560.955 294.288 561.08 293.787 561.206C293.285 561.332 292.783 561.457 292.281 561.709C291.78 561.96 291.403 562.211 291.027 562.462C290.651 562.713 290.274 562.965 290.023 563.216L287.891 561.08ZM298.428 568.868C297.55 568.868 296.672 568.868 295.668 568.994C294.79 569.119 293.912 569.245 293.159 569.496C292.407 569.748 291.78 570.124 291.278 570.627C290.776 571.129 290.525 571.757 290.525 572.511C290.525 573.641 290.901 574.521 291.654 574.898C292.407 575.4 293.41 575.651 294.79 575.651C295.794 575.651 296.672 575.526 297.424 575.149C298.177 574.772 298.679 574.395 299.181 573.767C299.682 573.265 299.933 572.637 300.184 571.883C300.435 571.255 300.435 570.501 300.435 569.873V568.617H298.428V568.868Z" fill="black"/>
<path d="M309.341 558.694H313.104V561.709H313.23C313.731 560.704 314.484 559.824 315.613 559.196C316.742 558.568 318.122 558.191 319.627 558.191C320.505 558.191 321.509 558.317 322.387 558.568C323.265 558.819 324.018 559.322 324.645 559.95C325.272 560.578 325.774 561.332 326.15 562.337C326.526 563.341 326.777 564.472 326.777 565.728V578.415H323.014V566.858C323.014 565.979 322.889 565.226 322.638 564.472C322.387 563.718 322.01 563.341 321.634 562.839C321.258 562.462 320.756 562.211 320.254 561.96C319.753 561.834 319.125 561.709 318.624 561.709C317.871 561.709 317.118 561.834 316.491 562.085C315.864 562.337 315.237 562.713 314.735 563.216C314.233 563.718 313.857 564.472 313.606 565.226C313.355 566.105 313.23 566.984 313.23 568.115V578.289H309.466V558.694H309.341Z" fill="black"/>
<path d="M346.347 563.97C345.72 563.216 344.967 562.713 344.215 562.337C343.462 561.96 342.584 561.834 341.455 561.834C340.451 561.834 339.573 561.96 338.82 562.337C338.068 562.713 337.441 563.216 336.939 563.844C336.437 564.472 336.061 565.226 335.81 566.105C335.559 566.984 335.434 567.863 335.434 568.743C335.434 569.622 335.559 570.501 335.935 571.381C336.186 572.26 336.688 572.888 337.19 573.516C337.691 574.144 338.444 574.646 339.197 574.898C339.949 575.274 340.828 575.4 341.831 575.4C342.835 575.4 343.838 575.274 344.465 574.898C345.218 574.521 345.845 574.018 346.472 573.265L349.107 575.903C348.103 577.033 346.974 577.787 345.72 578.163C344.465 578.666 343.086 578.917 341.58 578.917C340.075 578.917 338.695 578.666 337.441 578.163C336.186 577.661 335.057 576.907 334.179 576.028C333.301 575.149 332.548 574.018 332.047 572.762C331.545 571.506 331.294 570.124 331.294 568.617C331.294 567.11 331.545 565.728 332.047 564.472C332.548 563.216 333.301 562.085 334.179 561.206C335.057 560.327 336.186 559.573 337.441 559.071C338.695 558.568 340.075 558.317 341.706 558.317C343.086 558.317 344.465 558.568 345.845 559.071C347.1 559.573 348.354 560.327 349.232 561.457L346.347 563.97Z" fill="black"/>
<path d="M355.002 569.873C355.002 570.753 355.127 571.506 355.504 572.26C355.88 573.013 356.382 573.516 357.009 574.018C357.636 574.521 358.263 574.898 359.142 575.149C359.894 575.4 360.772 575.526 361.65 575.526C362.779 575.526 363.783 575.274 364.661 574.772C365.539 574.27 366.292 573.516 367.044 572.637L369.804 574.772C367.672 577.41 364.787 578.792 361.149 578.792C359.643 578.792 358.264 578.54 357.009 578.038C355.755 577.535 354.751 576.782 353.873 575.903C352.995 575.023 352.368 573.893 351.866 572.637C351.364 571.381 351.113 569.999 351.113 568.617C351.113 567.235 351.364 565.854 351.866 564.472C352.368 563.216 353.12 562.085 353.998 561.206C354.877 560.327 356.006 559.573 357.26 559.071C358.514 558.568 359.894 558.317 361.274 558.317C363.03 558.317 364.536 558.568 365.665 559.196C366.919 559.824 367.797 560.578 368.675 561.583C369.428 562.588 370.055 563.718 370.306 564.849C370.557 565.979 370.808 567.361 370.808 568.617V569.999H355.002V569.873ZM366.794 566.859C366.794 565.979 366.668 565.226 366.417 564.598C366.166 563.97 365.79 563.342 365.414 562.839C364.912 562.337 364.41 561.96 363.658 561.583C362.905 561.332 362.152 561.206 361.149 561.206C360.271 561.206 359.392 561.332 358.64 561.709C357.887 562.085 357.26 562.462 356.758 563.09C356.256 563.593 355.88 564.221 355.504 564.974C355.253 565.602 355.127 566.356 355.127 566.984H366.794V566.859Z" fill="black"/>
<path d="M375.324 558.694H379.087V561.709H379.213C379.464 561.206 379.84 560.704 380.216 560.327C380.593 559.95 381.095 559.573 381.596 559.196C382.098 558.945 382.725 558.694 383.227 558.443C383.854 558.317 384.482 558.191 385.109 558.191C385.736 558.191 386.238 558.317 386.739 558.443L386.614 562.462C386.363 562.337 385.987 562.337 385.736 562.211C385.485 562.211 385.109 562.085 384.858 562.085C382.976 562.085 381.596 562.588 380.718 563.593C379.715 564.598 379.213 566.23 379.213 568.366V578.289H375.45V558.694H375.324Z" fill="black"/>
<path d="M403.549 549.022H413.835C415.717 549.022 417.222 549.273 418.476 549.776C419.731 550.278 420.609 550.906 421.362 551.785C422.114 552.539 422.616 553.418 422.867 554.423C423.118 555.428 423.243 556.307 423.243 557.312C423.243 558.191 423.118 559.196 422.742 560.076C422.365 560.955 421.989 561.709 421.362 562.462C420.734 563.216 419.982 563.718 419.104 564.221C418.226 564.723 417.222 564.974 416.093 565.1L424.372 578.54H419.355L411.953 565.602H407.563V578.54H403.549V549.022ZM407.438 561.96H412.706C413.459 561.96 414.211 561.96 414.964 561.834C415.717 561.709 416.344 561.457 416.971 561.206C417.598 560.829 418.1 560.452 418.351 559.824C418.727 559.196 418.853 558.443 418.853 557.438C418.853 556.433 418.727 555.679 418.351 555.051C417.975 554.423 417.473 553.921 416.971 553.67C416.344 553.293 415.717 553.167 414.964 553.041C414.211 552.916 413.459 552.916 412.706 552.916H407.438V561.96Z" fill="black"/>
<path d="M430.268 569.873C430.268 570.753 430.393 571.506 430.769 572.26C431.146 573.013 431.648 573.516 432.275 574.018C432.902 574.521 433.529 574.898 434.407 575.149C435.16 575.4 436.038 575.526 436.916 575.526C438.045 575.526 439.049 575.274 439.927 574.772C440.805 574.27 441.557 573.516 442.31 572.637L445.07 574.772C442.937 577.41 440.052 578.792 436.414 578.792C434.909 578.792 433.529 578.54 432.275 578.038C431.02 577.535 430.017 576.782 429.139 575.903C428.261 575.023 427.633 573.893 427.132 572.637C426.63 571.381 426.379 569.999 426.379 568.617C426.379 567.235 426.63 565.854 427.132 564.472C427.633 563.216 428.386 562.085 429.264 561.206C430.142 560.327 431.271 559.573 432.526 559.071C433.78 558.568 435.16 558.317 436.54 558.317C438.296 558.317 439.801 558.568 440.93 559.196C442.185 559.824 443.063 560.578 443.941 561.583C444.694 562.588 445.321 563.718 445.572 564.849C445.948 566.105 446.073 567.361 446.073 568.617V569.999H430.268V569.873ZM442.059 566.859C442.059 565.979 441.934 565.226 441.683 564.598C441.432 563.97 441.056 563.342 440.679 562.839C440.178 562.337 439.676 561.96 438.923 561.583C438.17 561.332 437.418 561.206 436.414 561.206C435.536 561.206 434.658 561.332 433.905 561.709C433.153 562.085 432.526 562.462 432.024 563.09C431.522 563.593 431.146 564.221 430.769 564.974C430.519 565.602 430.393 566.356 430.393 566.984H442.059V566.859Z" fill="black"/>
<path d="M460.875 563.593C460.374 563.09 459.872 562.588 459.245 562.211C458.618 561.834 457.739 561.709 456.861 561.709C455.983 561.709 455.231 561.834 454.603 562.211C453.976 562.588 453.6 563.09 453.6 563.844C453.6 564.472 453.725 564.849 454.102 565.226C454.478 565.603 454.98 565.854 455.481 566.105C455.983 566.356 456.485 566.482 457.112 566.607C457.739 566.733 458.241 566.859 458.618 566.859C459.37 567.11 460.123 567.235 460.875 567.612C461.628 567.863 462.13 568.24 462.757 568.743C463.259 569.245 463.635 569.748 464.012 570.376C464.262 571.004 464.388 571.757 464.388 572.637C464.388 573.767 464.137 574.646 463.635 575.526C463.133 576.279 462.506 576.907 461.754 577.41C461.001 577.912 460.123 578.289 459.245 578.54C458.241 578.792 457.363 578.917 456.36 578.917C454.729 578.917 453.349 578.666 452.095 578.163C450.84 577.661 449.711 576.782 448.833 575.4L451.593 573.139C452.22 573.767 452.847 574.27 453.6 574.772C454.352 575.274 455.231 575.526 456.36 575.526C456.861 575.526 457.363 575.526 457.739 575.4C458.241 575.274 458.618 575.149 458.994 574.898C459.37 574.646 459.621 574.395 459.872 574.144C460.123 573.767 460.248 573.516 460.248 573.013C460.248 572.511 460.123 572.009 459.747 571.632C459.37 571.255 458.994 571.004 458.492 570.752C457.99 570.501 457.489 570.376 456.987 570.25C456.485 570.124 455.983 569.999 455.607 569.999C454.854 569.748 454.102 569.622 453.349 569.371C452.596 569.12 451.969 568.743 451.467 568.366C450.966 567.989 450.464 567.487 450.087 566.733C449.711 566.105 449.586 565.351 449.586 564.346C449.586 563.342 449.837 562.462 450.213 561.709C450.589 560.955 451.216 560.327 451.969 559.824C452.722 559.322 453.474 558.945 454.353 558.694C455.231 558.443 456.109 558.317 457.112 558.317C458.492 558.317 459.747 558.568 460.875 559.071C462.13 559.573 463.008 560.453 463.761 561.583L460.875 563.593Z" fill="black"/>
<path d="M471.538 569.873C471.538 570.753 471.664 571.506 472.04 572.26C472.416 573.013 472.918 573.516 473.545 574.018C474.172 574.521 474.8 574.898 475.678 575.149C476.43 575.4 477.309 575.526 478.187 575.526C479.316 575.526 480.319 575.274 481.197 574.772C482.075 574.27 482.828 573.516 483.581 572.637L486.34 574.772C484.208 577.41 481.323 578.792 477.685 578.792C476.18 578.792 474.8 578.54 473.545 578.038C472.291 577.535 471.287 576.782 470.409 575.903C469.531 575.023 468.904 573.893 468.402 572.637C467.9 571.381 467.649 569.999 467.649 568.617C467.649 567.235 467.9 565.854 468.402 564.472C468.904 563.216 469.657 562.085 470.535 561.206C471.413 560.327 472.542 559.573 473.796 559.071C475.051 558.568 476.43 558.317 477.81 558.317C479.566 558.317 481.072 558.568 482.201 559.196C483.455 559.824 484.333 560.578 485.211 561.583C485.964 562.588 486.591 563.718 486.842 564.849C487.093 565.979 487.344 567.361 487.344 568.617V569.999H471.538V569.873ZM483.33 566.859C483.33 565.979 483.204 565.226 482.953 564.598C482.703 563.97 482.326 563.342 481.95 562.839C481.448 562.337 480.946 561.96 480.194 561.583C479.441 561.332 478.688 561.206 477.685 561.206C476.807 561.206 475.929 561.332 475.176 561.709C474.423 562.085 473.796 562.462 473.294 563.09C472.793 563.593 472.416 564.221 472.04 564.974C471.789 565.602 471.664 566.356 471.664 566.984H483.33V566.859Z" fill="black"/>
<path d="M491.61 561.08C492.613 560.076 493.867 559.448 495.247 558.945C496.627 558.443 498.007 558.191 499.387 558.191C500.767 558.191 502.021 558.317 503.15 558.694C504.154 559.071 505.032 559.573 505.659 560.201C506.286 560.829 506.788 561.457 507.164 562.337C507.541 563.09 507.666 563.969 507.666 564.849V574.898C507.666 575.651 507.666 576.279 507.666 576.782C507.666 577.41 507.792 577.912 507.792 578.415H504.53C504.405 577.41 504.405 576.405 504.405 575.4H504.279C503.401 576.656 502.523 577.535 501.394 578.038C500.265 578.54 499.011 578.791 497.505 578.791C496.627 578.791 495.749 578.666 494.871 578.415C493.993 578.163 493.366 577.787 492.738 577.284C492.111 576.782 491.61 576.154 491.233 575.4C490.857 574.646 490.731 573.767 490.731 572.888C490.731 571.632 490.982 570.501 491.61 569.748C492.237 568.868 492.989 568.24 493.868 567.612C494.871 567.11 496 566.733 497.254 566.482C498.509 566.23 500.014 566.105 501.394 566.105H504.154V565.226C504.154 564.723 504.028 564.221 503.903 563.718C503.652 563.216 503.401 562.713 503.025 562.337C502.648 561.96 502.147 561.583 501.519 561.332C500.892 561.08 500.265 560.955 499.387 560.955C498.634 560.955 498.007 561.08 497.505 561.206C497.004 561.332 496.502 561.457 496 561.709C495.498 561.96 495.122 562.211 494.746 562.462C494.369 562.713 493.993 562.965 493.742 563.216L491.61 561.08ZM502.147 568.868C501.269 568.868 500.391 568.868 499.387 568.994C498.509 569.119 497.631 569.245 496.878 569.496C496.125 569.748 495.498 570.124 494.996 570.627C494.495 571.129 494.244 571.757 494.244 572.511C494.244 573.641 494.62 574.521 495.373 574.898C496.125 575.4 497.129 575.651 498.509 575.651C499.512 575.651 500.391 575.526 501.143 575.149C501.896 574.772 502.398 574.395 502.899 573.767C503.401 573.265 503.652 572.637 503.903 571.883C504.154 571.255 504.154 570.501 504.154 569.873V568.617H502.147V568.868Z" fill="black"/>
<path d="M513.812 558.694H517.576V561.709H517.701C517.952 561.206 518.328 560.704 518.705 560.327C519.081 559.95 519.583 559.573 520.085 559.196C520.586 558.945 521.214 558.694 521.715 558.443C522.343 558.317 522.97 558.191 523.597 558.191C524.224 558.191 524.726 558.317 525.228 558.443L525.102 562.462C524.851 562.337 524.475 562.337 524.224 562.211C523.973 562.211 523.597 562.085 523.346 562.085C521.464 562.085 520.085 562.588 519.207 563.593C518.203 564.598 517.701 566.23 517.701 568.366V578.289H513.938V558.694H513.812Z" fill="black"/>
<path d="M541.911 563.97C541.284 563.216 540.531 562.713 539.779 562.337C539.026 561.96 538.148 561.834 537.019 561.834C536.015 561.834 535.137 561.96 534.384 562.337C533.632 562.713 533.005 563.216 532.503 563.844C532.001 564.472 531.625 565.226 531.374 566.105C531.123 566.984 530.998 567.863 530.998 568.743C530.998 569.622 531.123 570.501 531.499 571.381C531.75 572.26 532.252 572.888 532.754 573.516C533.256 574.144 534.008 574.646 534.761 574.898C535.513 575.274 536.392 575.4 537.395 575.4C538.399 575.4 539.402 575.274 540.029 574.898C540.782 574.521 541.409 574.018 542.162 573.265L544.796 575.903C543.793 577.033 542.664 577.787 541.409 578.163C540.155 578.666 538.775 578.917 537.27 578.917C535.764 578.917 534.384 578.666 533.13 578.163C531.876 577.661 530.747 576.907 529.869 576.028C528.99 575.149 528.238 574.018 527.736 572.762C527.234 571.506 526.983 570.124 526.983 568.617C526.983 567.11 527.234 565.728 527.736 564.472C528.238 563.216 528.99 562.085 529.869 561.206C530.747 560.327 531.876 559.573 533.13 559.071C534.384 558.568 535.764 558.317 537.395 558.317C538.775 558.317 540.155 558.568 541.535 559.071C542.789 559.573 544.044 560.327 544.922 561.457L541.911 563.97Z" fill="black"/>
<path d="M548.184 547.012H551.947V561.709H552.072C552.574 560.704 553.327 559.824 554.456 559.196C555.585 558.568 556.965 558.191 558.47 558.191C559.348 558.191 560.352 558.317 561.23 558.568C562.108 558.82 562.86 559.322 563.488 559.95C564.115 560.578 564.617 561.332 564.993 562.337C565.369 563.341 565.62 564.472 565.62 565.728V578.415H561.857V566.859C561.857 565.979 561.731 565.226 561.481 564.472C561.23 563.844 560.853 563.341 560.477 562.839C560.101 562.462 559.599 562.211 559.097 561.96C558.595 561.834 557.968 561.709 557.466 561.709C556.714 561.709 555.961 561.834 555.334 562.085C554.707 562.337 554.079 562.713 553.578 563.216C553.076 563.718 552.7 564.472 552.449 565.226C552.198 566.105 552.072 566.984 552.072 568.115V578.289H548.309V547.012H548.184Z" fill="black"/>
<path d="M240.473 365.255C205.976 365.255 181.641 391.759 181.641 423.412V423.789C181.641 455.443 205.726 481.57 240.097 481.57C274.593 481.57 298.929 455.066 298.929 423.412V423.035C298.929 391.382 274.97 365.255 240.473 365.255ZM278.231 423.663C278.231 445.52 262.676 463.356 240.348 463.356C218.019 463.356 202.213 445.268 202.213 423.412V423.035C202.213 401.179 217.768 383.343 240.097 383.343C262.426 383.343 278.231 401.43 278.231 423.287V423.663Z" fill="black"/>
<path d="M335.684 367.139H315.989V479.434H335.684V367.139Z" fill="black"/>
<path d="M410.323 463.356C388.872 463.356 373.317 445.394 373.317 423.412V423.035C373.317 401.054 388.872 383.343 410.323 383.343C423.118 383.343 432.777 388.995 441.683 397.285L454.353 382.715C443.565 372.415 431.146 365.255 410.448 365.255C376.453 365.255 352.619 391.382 352.619 423.412V423.789C352.619 456.071 376.955 481.57 409.695 481.57C430.644 481.57 443.565 473.907 455.231 461.723L442.561 448.911C432.902 457.704 424.121 463.356 410.323 463.356Z" fill="black"/>
<path d="M536.015 436.978C551.696 432.456 562.735 421.403 562.735 402.938V402.561C562.735 392.764 559.348 384.473 553.452 378.318C546.302 371.284 535.137 367.139 521.088 367.139H471.036V479.434H490.731V440.244H515.066H515.443L543.04 479.434H566.247L536.015 436.978ZM490.856 422.91V385.227H519.582C534.134 385.227 542.789 391.759 542.789 403.817V404.194C542.789 415.625 533.757 423.036 519.708 423.036H490.856V422.91Z" fill="black"/>
</g>
<path d="M234.2 32.3999H247.3C257.9 32.3999 265.2 39.5999 265.2 49.0999V49.1999C265.2 58.6999 257.9 65.9999 247.3 65.9999H234.2V32.3999ZM247.3 59.2999C253.3 59.2999 257.4 55.1999 257.4 49.2999V49.1999C257.4 43.1999 253.3 39.0999 247.3 39.0999H241.6V59.3999H247.3V59.2999Z" fill="#556793"/>
<path d="M269.7 53.3C269.7 45.8 275.7 39.8 283.7 39.8C291.7 39.8 297.6 45.7 297.6 53.1V53.2001C297.6 60.6001 291.6 66.6 283.6 66.6C275.6 66.6 269.7 60.7 269.7 53.3ZM290.4 53.3C290.4 49.4 287.7 46.1 283.6 46.1C279.4 46.1 276.9 49.3 276.9 53.1V53.2001C276.9 57.0001 279.6 60.3 283.7 60.3C287.9 60.3 290.4 57.1 290.4 53.3Z" fill="#556793"/>
<path d="M301.6 53.3C301.6 45.9 307.2 39.8 315.1 39.8C319.9 39.8 323 41.4 325.4 44.1L320.9 48.9001C319.3 47.2001 317.6 46.1 315 46.1C311.4 46.1 308.8 49.3 308.8 53.1V53.2001C308.8 57.1001 311.3 60.3 315.3 60.3C317.7 60.3 319.4 59.2 321.2 57.6L325.5 61.9001C323 64.6001 320.1 66.6 315 66.6C307.3 66.6 301.6 60.6 301.6 53.3Z" fill="#556793"/>
<path d="M330.3 31H337.6V49.7L346.1 40.3H354.8L345 50.4L355.2 66H346.8L340.1 55.5L337.6 58.2V66H330.3V31Z" fill="#556793"/>
<path d="M356.7 62.5999L359.8 57.7999C362.6 59.7999 365.5 60.8999 367.9 60.8999C370 60.8999 371 60.0999 371 58.9999V58.8999C371 57.2999 368.5 56.7999 365.7 55.8999C362.1 54.7999 358 53.1999 358 48.1999V48.0999C358 42.8999 362.2 39.8999 367.4 39.8999C370.7 39.8999 374.2 40.9999 377 42.8999L374.2 47.8999C371.7 46.3999 369.1 45.4999 367.2 45.4999C365.4 45.4999 364.5 46.2999 364.5 47.2999V47.3999C364.5 48.7999 366.9 49.4999 369.7 50.4999C373.3 51.6999 377.5 53.3999 377.5 58.0999V58.1999C377.5 63.8999 373.2 66.4999 367.7 66.4999C364.1 66.4999 360.1 65.2999 356.7 62.5999Z" fill="#556793"/>
<path d="M383.5 58.7V46.5H380.4V40.2999H383.5V33.7H390.8V40.2999H396.8V46.5H390.8V57.5C390.8 59.2 391.5 60 393.2 60C394.5 60 395.7 59.6999 396.8 59.0999V65C395.3 65.9 393.5 66.5 391 66.5C386.5 66.4 383.5 64.7 383.5 58.7Z" fill="#556793"/>
<path d="M400.2 53.3C400.2 45.8 406.2 39.8 414.2 39.8C422.2 39.8 428.1 45.7 428.1 53.1V53.2001C428.1 60.6001 422.1 66.6 414.1 66.6C406.1 66.6 400.2 60.7 400.2 53.3ZM420.9 53.3C420.9 49.4 418.2 46.1 414.1 46.1C409.9 46.1 407.4 49.3 407.4 53.1V53.2001C407.4 57.0001 410.1 60.3 414.2 60.3C418.4 60.3 420.9 57.1 420.9 53.3Z" fill="#556793"/>
<path d="M433.4 40.2999H440.7V45.4999C442.2 41.8999 444.6 39.5999 448.9 39.7999V47.3999H448.5C443.7 47.3999 440.7 50.2999 440.7 56.4999V65.9999H433.4V40.2999Z" fill="#556793"/>
<path d="M451.4 53.3C451.4 45.9 456.6 39.8 464.1 39.8C472.7 39.8 476.6 46.5 476.6 53.8C476.6 54.4 476.6 55.0001 476.5 55.7001H458.6C459.3 59.0001 461.6 60.7001 464.9 60.7001C467.3 60.7001 469.1 59.9 471.1 58.1L475.3 61.8C472.9 64.8 469.4 66.6 464.8 66.6C457.2 66.6 451.4 61.2 451.4 53.3ZM469.6 51.1C469.2 47.8 467.2 45.6 464.2 45.6C461.2 45.6 459.2 47.8 458.6 51.1H469.6Z" fill="#556793"/>
<path d="M233 105.9C233 97.6 239.2 90.8 247.7 90.8C253 90.8 256.1 92.7 259.1 95.4L256.9 97.8C254.4 95.5 251.7 93.8 247.7 93.8C241.3 93.8 236.4 99 236.4 105.7V105.8C236.4 112.5 241.3 117.8 247.7 117.8C251.7 117.8 254.3 116.3 257.1 113.6L259.3 115.7C256.3 118.8 252.9 120.8 247.7 120.8C239.2 120.9 233 114.3 233 105.9Z" fill="#556793"/>
<path d="M264.5 98.9001H267.7V104.5C269.3 100.9 272.4 98.3001 276.5 98.5001V102H276.3C271.6 102 267.8 105.4 267.8 111.9V120.5H264.6V98.9001H264.5Z" fill="#556793"/>
<path d="M289.9 118.1C292.9 118.1 294.9 116.9 296.7 115.1L298.7 116.9C296.5 119.3 293.9 120.9 289.8 120.9C283.9 120.9 279.1 116.4 279.1 109.7C279.1 103.5 283.5 98.5 289.4 98.5C295.8 98.5 299.4 103.6 299.4 109.9C299.4 110.2 299.4 110.5 299.4 111H282.3C282.8 115.5 286.1 118.1 289.9 118.1ZM296.2 108.4C295.8 104.5 293.6 101.2 289.3 101.2C285.6 101.2 282.8 104.3 282.3 108.4H296.2Z" fill="#556793"/>
<path d="M303.4 114.2C303.4 109.5 307.1 107.1 312.6 107.1C315.3 107.1 317.3 107.5 319.2 108V107.3C319.2 103.5 316.9 101.5 312.8 101.5C310.3 101.5 308.3 102.1 306.3 103L305.3 100.4C307.7 99.3001 310 98.6001 313.1 98.6001C316.1 98.6001 318.5 99.4001 320 101C321.5 102.5 322.2 104.6 322.2 107.3V120.4H319V117.2C317.5 119.1 315 120.9 311.3 120.9C307.4 120.9 303.4 118.6 303.4 114.2ZM319.2 112.5V110.5C317.6 110 315.5 109.6 312.9 109.6C308.9 109.6 306.6 111.3 306.6 113.9V114C306.6 116.7 309.1 118.3 312 118.3C316 118.3 319.2 115.9 319.2 112.5Z" fill="#556793"/>
<path d="M330 114.7V101.7H327V98.8999H330V92.3999H333.2V98.8999H340V101.7H333.2V114.3C333.2 116.9 334.7 117.9 336.8 117.9C337.9 117.9 338.8 117.7 339.9 117.2V119.9C338.8 120.5 337.6 120.8 336 120.8C332.6 120.8 330 119.1 330 114.7Z" fill="#556793"/>
<path d="M354.6 118.1C357.6 118.1 359.6 116.9 361.4 115.1L363.4 116.9C361.2 119.3 358.6 120.9 354.5 120.9C348.6 120.9 343.8 116.4 343.8 109.7C343.8 103.5 348.2 98.5 354.1 98.5C360.5 98.5 364.1 103.6 364.1 109.9C364.1 110.2 364.1 110.5 364.1 111H347C347.5 115.5 350.8 118.1 354.6 118.1ZM360.8 108.4C360.4 104.5 358.2 101.2 353.9 101.2C350.2 101.2 347.4 104.3 346.9 108.4H360.8Z" fill="#556793"/>
<path d="M367.6 124C369.7 123.3 370.6 122.2 370.4 120.4H368.9V116H372.7V119.7C372.7 123.1 371.2 124.7 368.1 125.4L367.6 124Z" fill="#556793"/>
<path d="M390.6 116.2L392.6 113.8C395.6 116.5 398.5 117.9 402.6 117.9C406.5 117.9 409.1 115.8 409.1 112.9V112.8C409.1 110.1 407.6 108.6 401.5 107.3C394.8 105.8 391.7 103.7 391.7 98.8999V98.7999C391.7 94.1999 395.7 90.8999 401.3 90.8999C405.5 90.8999 408.6 92.0999 411.5 94.4999L409.6 96.9999C406.9 94.7999 404.2 93.7999 401.2 93.7999C397.4 93.7999 395 95.8999 395 98.4999V98.5999C395 101.3 396.5 102.9 402.9 104.3C409.4 105.7 412.4 108.1 412.4 112.5V112.6C412.4 117.6 408.2 120.8 402.5 120.8C397.9 120.8 394.1 119.3 390.6 116.2Z" fill="#556793"/>
<path d="M418.6 90H421.8V102.6C423.2 100.3 425.5 98.4 429.2 98.4C434.4 98.4 437.4 101.9 437.4 107V120.4H434.2V107.8C434.2 103.8 432 101.3 428.3 101.3C424.6 101.3 421.9 104 421.9 108V120.3H418.7V90H418.6Z" fill="#556793"/>
<path d="M442.6 114.2C442.6 109.5 446.3 107.1 451.8 107.1C454.5 107.1 456.5 107.5 458.4 108V107.3C458.4 103.5 456.1 101.5 452 101.5C449.5 101.5 447.5 102.1 445.5 103L444.5 100.4C446.9 99.3001 449.2 98.6001 452.3 98.6001C455.3 98.6001 457.7 99.4001 459.2 101C460.7 102.5 461.4 104.6 461.4 107.3V120.4H458.2V117.2C456.7 119.1 454.2 120.9 450.5 120.9C446.6 120.9 442.6 118.6 442.6 114.2ZM458.4 112.5V110.5C456.8 110 454.7 109.6 452.1 109.6C448.1 109.6 445.8 111.3 445.8 113.9V114C445.8 116.7 448.3 118.3 451.2 118.3C455.2 118.3 458.4 115.9 458.4 112.5Z" fill="#556793"/>
<path d="M468.3 98.9001H471.5V104.5C473.1 100.9 476.2 98.3001 480.3 98.5001V102H480C475.3 102 471.5 105.4 471.5 111.9V120.5H468.3V98.9001Z" fill="#556793"/>
<path d="M493.7 118.1C496.7 118.1 498.7 116.9 500.5 115.1L502.5 116.9C500.3 119.3 497.7 120.9 493.6 120.9C487.7 120.9 482.9 116.4 482.9 109.7C482.9 103.5 487.3 98.5 493.2 98.5C499.6 98.5 503.2 103.6 503.2 109.9C503.2 110.2 503.2 110.5 503.2 111H486.1C486.6 115.5 489.9 118.1 493.7 118.1ZM500 108.4C499.6 104.5 497.4 101.2 493.1 101.2C489.4 101.2 486.6 104.3 486.1 108.4H500Z" fill="#556793"/>
<path d="M506.8 124C508.9 123.3 509.8 122.2 509.6 120.4H508V116H511.8V119.7C511.8 123.1 510.3 124.7 507.2 125.4L506.8 124Z" fill="#556793"/>
<path d="M531.2 108.2V91.3H534.5V108C534.5 114.3 537.8 117.8 543.4 117.8C548.8 117.8 552.2 114.6 552.2 108.2V91.3H555.5V108C555.5 116.5 550.6 120.9 543.4 120.9C536.1 120.9 531.2 116.5 531.2 108.2Z" fill="#556793"/>
<path d="M560.9 117.7L562.5 115.4C564.8 117.1 567.4 118.1 569.9 118.1C572.5 118.1 574.4 116.8 574.4 114.7V114.6C574.4 112.4 571.9 111.6 569 110.8C565.6 109.8 561.9 108.7 561.9 104.7V104.6C561.9 100.9 565 98.3999 569.2 98.3999C571.8 98.3999 574.7 99.2999 576.9 100.8L575.4 103.2C573.4 101.9 571.1 101.1 569 101.1C566.5 101.1 564.8 102.4 564.8 104.2V104.3C564.8 106.3 567.5 107.1 570.3 108C573.6 109 577.2 110.3 577.2 114.2V114.3C577.2 118.4 573.8 120.7 569.5 120.7C566.7 120.8 563.3 119.6 560.9 117.7Z" fill="#556793"/>
<path d="M592.9 118.1C595.9 118.1 597.9 116.9 599.7 115.1L601.7 116.9C599.5 119.3 596.9 120.9 592.8 120.9C586.9 120.9 582.1 116.4 582.1 109.7C582.1 103.5 586.5 98.5 592.4 98.5C598.8 98.5 602.4 103.6 602.4 109.9C602.4 110.2 602.4 110.5 602.4 111H585.3C585.7 115.5 589.1 118.1 592.9 118.1ZM599.1 108.4C598.7 104.5 596.5 101.2 592.2 101.2C588.5 101.2 585.7 104.3 585.2 108.4H599.1Z" fill="#556793"/>
<path d="M88.5998 141.6L4.7998 117.2V34.8L88.5998 10.5V141.6Z" fill="#7785AB"/>
<path d="M205.5 108.8L94.5 141.6V10.5L205.5 43.1V108.8Z" fill="#7785AB"/>
<path d="M69.4 101.9C69.4 110.7 61.8 116.2 53.2 114.4C45.3 112.8 39.5 105.5 39.5 98.0001C39.5 90.5001 45.4 84.7001 53.3 85.1001C61.9 85.6001 69.4 93.1001 69.4 101.9Z" fill="white"/>
<path d="M50.4002 44.6C50.4002 50.5 45.7002 55.8 40.2002 56.4C35.1002 56.9 31.2002 53.1 31.2002 47.8C31.2002 42.5 35.2002 37.3 40.3002 36.2C45.7002 34.9 50.4002 38.6 50.4002 44.6Z" fill="white"/>
<path d="M22.1996 87.2999C22.1996 90.9999 19.6996 93.6999 16.6996 93.2999C13.8996 92.9999 11.5996 89.8999 11.5996 86.4999C11.5996 83.0999 13.7996 80.3999 16.6996 80.3999C19.6996 80.4999 22.1996 83.5999 22.1996 87.2999Z" fill="white"/>
<path d="M40.2996 47.1001L56.9996 102.7L16.5996 87.3001L40.2996 47.1001Z" stroke="white" stroke-width="5.6041" stroke-miterlimit="10"/>
<path opacity="0.43" d="M119.1 34.8V114.3" stroke="white" stroke-width="4.4525" stroke-miterlimit="10" stroke-linecap="round"/>
<path opacity="0.43" d="M136.4 38.3V110.9" stroke="white" stroke-width="4.4525" stroke-miterlimit="10" stroke-linecap="round"/>
<path opacity="0.43" d="M150.8 41.2V108" stroke="white" stroke-width="4.4525" stroke-miterlimit="10" stroke-linecap="round"/>
<path opacity="0.43" d="M163.2 43.8V105.7" stroke="white" stroke-width="4.4525" stroke-miterlimit="10" stroke-linecap="round"/>
<path opacity="0.43" d="M173.7 46V103.6" stroke="white" stroke-width="4.4525" stroke-miterlimit="10" stroke-linecap="round"/>
<path opacity="0.43" d="M183 48V101.9" stroke="white" stroke-width="4.4525" stroke-miterlimit="10" stroke-linecap="round"/>
<path opacity="0.43" d="M191.1 49.6001V100.3" stroke="white" stroke-width="4.4525" stroke-miterlimit="10" stroke-linecap="round"/>
<path opacity="0.43" d="M198.3 51.2V98.9" stroke="white" stroke-width="4.4525" stroke-miterlimit="10" stroke-linecap="round"/>
<path d="M119.7 28.1L94.5 22V6.30005L119.7 14.2V28.1Z" fill="#7785AB"/>
<path d="M205.5 49.3999L197.8 47.5999V38.3999L205.5 40.6999V49.3999Z" fill="#7785AB"/>
<path d="M88.6004 21.2L73.4004 24.9V10.9L88.6004 6.19995V21.2Z" fill="#7785AB"/>
<path d="M11.4998 40.3L4.7998 41.9001V31.9L11.4998 29.8V40.3Z" fill="#7785AB"/>
<path d="M88.4998 145.6L72.2998 140.6V126.2L88.4998 130.1V145.6Z" fill="#7785AB"/>
<path d="M11.0998 121.7L4.7998 119.8V109.9L11.0998 111.4V121.7Z" fill="#7785AB"/>
<path d="M119.7 137.7L94.5 145.6V130.5L119.7 124.3V137.7Z" fill="#7785AB"/>
<path d="M205.4 111L197.8 113.4V105.6L205.4 103.7V111Z" fill="#7785AB"/>
<path d="M39.9004 25.2001C39.9004 26.9001 38.6004 28.6001 37.1004 29.0001C35.6004 29.4001 34.4004 28.4001 34.4004 26.8001C34.4004 25.2001 35.6004 23.5001 37.1004 23.0001C38.6004 22.5001 39.9004 23.5001 39.9004 25.2001Z" fill="#7785AB"/>
<path d="M39.9004 127.1C39.9004 128.8 38.6004 129.7 37.1004 129.3C35.6004 128.8 34.4004 127.2 34.4004 125.5C34.4004 123.8 35.6004 122.9 37.1004 123.3C38.6004 123.8 39.9004 125.5 39.9004 127.1Z" fill="#7785AB"/>
<defs>
<clipPath id="clip0_432_125">
<rect width="567" height="412" fill="white" transform="translate(0 184)"/>
</clipPath>
</defs>
</svg>
